<?xml version="1.0" standalone="no"?>
<!DOCTYPE svg PUBLIC "-//W3C//DTD SVG 20010904//EN"
 "http://www.w3.org/TR/2001/REC-SVG-20010904/DTD/svg10.dtd">
<svg version="1.0" xmlns="http://www.w3.org/2000/svg"
 width="250.000000pt" height="250.000000pt" viewBox="0 0 250.000000 250.000000"
 preserveAspectRatio="xMidYMid meet">
<metadata>
Created by potrace 1.11, written by Peter Selinger 2001-2013
</metadata>
<g transform="translate(0.000000,250.000000) scale(0.100000,-0.100000)"
fill="#000000" stroke="none">
<path d="M879 2348 c15 -20 2 -25 -17 -6 -9 9 -13 7 -18 -6 -5 -13 -9 -14 -14
-6 -5 8 -13 9 -21 4 -8 -4 -26 -7 -41 -5 -14 1 -29 -2 -32 -7 -3 -6 -16 -8
-28 -4 -11 3 -19 1 -16 -4 4 -5 -8 -10 -25 -11 -52 -3 -97 -15 -97 -24 0 -5
-5 -9 -11 -9 -5 0 -7 6 -4 13 4 6 -1 3 -10 -8 -9 -11 -24 -20 -35 -20 -10 0
-30 -10 -44 -22 -15 -13 -33 -23 -42 -23 -8 0 -12 -4 -9 -10 3 -5 -1 -10 -9
-10 -8 0 -19 -7 -24 -16 -5 -9 -12 -15 -15 -15 -21 3 -27 0 -21 -11 5 -8 2 -9
-10 -5 -10 4 -15 3 -11 -3 3 -6 1 -10 -5 -10 -6 0 -8 -5 -5 -10 4 -6 2 -9 -3
-8 -5 2 -25 -14 -45 -34 -19 -20 -38 -34 -42 -30 -5 4 -5 1 -1 -6 4 -7 1 -15
-8 -18 -8 -3 -12 -12 -9 -20 3 -8 -1 -14 -11 -14 -9 0 -16 -8 -16 -21 0 -11
-4 -17 -10 -14 -5 3 -10 -1 -10 -9 0 -9 -4 -16 -10 -16 -5 0 -10 -7 -10 -15 0
-8 -4 -15 -10 -15 -5 0 -7 -6 -4 -14 3 -7 -2 -20 -10 -29 -8 -8 -12 -17 -9
-21 4 -3 1 -6 -4 -6 -6 0 -10 -12 -8 -26 1 -14 -3 -31 -10 -37 -14 -14 -15
-19 -15 -53 0 -14 -4 -23 -8 -20 -5 3 -9 -1 -9 -9 0 -8 5 -11 11 -8 6 3 6 1
-1 -7 -6 -7 -9 -19 -6 -26 3 -8 0 -14 -7 -14 -6 0 -9 -3 -6 -8 2 -4 6 -50 7
-102 2 -69 7 -100 18 -114 11 -13 11 -17 3 -12 -12 7 -12 5 -1 -15 12 -22 16
-36 21 -76 1 -7 5 -13 10 -13 4 0 8 -7 8 -15 0 -8 5 -15 11 -15 5 0 8 -4 4 -9
-3 -5 -1 -12 5 -16 6 -4 8 -11 5 -16 -4 -5 2 -9 12 -10 11 0 13 -3 5 -6 -9 -3
-4 -13 15 -30 15 -14 22 -22 15 -19 -19 11 -14 -1 10 -25 13 -12 16 -18 8 -14
-13 8 -13 6 -2 -7 11 -14 10 -20 -5 -35 -11 -11 -17 -26 -15 -34 3 -8 2 -11
-2 -8 -9 9 -56 -34 -56 -50 0 -7 -5 -9 -12 -5 -8 5 -9 2 -5 -9 4 -10 -1 -22
-13 -30 -11 -8 -17 -17 -13 -20 3 -4 1 -7 -5 -7 -11 0 -9 -31 3 -50 3 -6 0
-10 -7 -10 -11 0 -10 -2 0 -9 11 -6 10 -10 -3 -15 -10 -3 -15 -12 -11 -21 3
-8 0 -15 -5 -15 -6 0 -9 -9 -6 -20 3 -11 1 -22 -4 -25 -7 -5 6 -40 21 -55 6
-6 12 -30 13 -47 0 -7 5 -9 10 -6 7 4 8 -1 3 -13 -4 -10 -4 -15 0 -11 4 4 13
-6 20 -23 10 -22 17 -28 30 -23 12 4 15 3 10 -5 -5 -8 0 -12 14 -12 13 0 20
-5 17 -12 -2 -7 2 -27 9 -44 7 -17 10 -34 7 -38 -4 -3 -2 -6 3 -6 5 0 10 -10
11 -22 1 -11 6 -24 10 -27 4 -3 9 -17 11 -31 2 -14 9 -29 16 -35 7 -5 11 -17
8 -25 -3 -8 -1 -12 3 -7 5 4 17 -11 27 -33 10 -22 23 -40 29 -40 6 0 7 -4 4
-10 -3 -5 -1 -10 4 -10 6 0 11 -10 11 -22 0 -19 2 -20 10 -8 7 11 10 12 10 2
0 -29 26 -40 93 -38 37 0 72 7 79 14 16 16 31 16 22 0 -6 -10 -4 -10 7 -2 8 6
34 12 58 13 25 0 48 6 52 12 5 8 8 8 10 0 3 -7 12 -9 22 -6 9 4 14 12 10 19
-4 6 0 6 9 -2 13 -10 17 -10 21 0 4 11 6 10 6 0 1 -7 5 -11 11 -7 5 3 48 6 95
7 47 0 85 5 85 9 0 5 5 9 11 9 5 0 7 -4 4 -10 -3 -5 -2 -10 4 -10 5 0 13 5 16
10 5 8 11 7 21 -1 11 -9 15 -8 20 5 6 15 8 15 20 -1 11 -15 13 -15 8 -2 -4 14
2 16 46 14 32 -2 48 0 44 7 -4 6 3 5 15 -2 18 -9 26 -9 39 2 13 11 15 11 7 -2
-8 -13 -7 -13 8 -1 14 11 17 11 17 0 0 -10 3 -10 12 -1 16 16 31 15 22 0 -4
-7 3 -4 16 7 13 11 20 15 17 8 -5 -7 0 -9 13 -6 11 3 17 10 13 17 -4 6 0 5 9
-2 9 -7 19 -9 22 -4 3 5 22 8 42 5 25 -2 33 0 29 8 -5 7 0 7 16 -1 19 -11 24
-10 36 6 12 17 18 12 13 -11 -1 -5 7 -2 17 8 15 13 22 14 31 5 9 -9 12 -9 12
1 0 10 3 11 13 2 8 -6 17 -8 21 -4 8 8 42 13 105 14 29 1 39 4 30 10 -9 6 -10
9 -2 9 6 0 15 -5 18 -10 5 -8 11 -7 21 1 11 9 14 8 14 -2 0 -11 2 -11 10 1 5
8 10 11 10 5 0 -5 5 -3 10 5 5 8 10 10 10 4 0 -8 11 -9 34 -4 19 4 38 5 42 1
4 -3 4 4 1 16 -3 13 0 26 5 30 7 3 8 1 4 -5 -4 -7 -5 -12 -2 -12 4 0 13 18 22
39 9 22 26 47 39 55 28 19 39 20 29 5 -3 -6 6 -3 22 7 21 14 26 15 19 4 -8
-13 -7 -13 8 -1 9 7 17 10 17 6 0 -4 6 -2 13 4 8 6 17 8 20 4 6 -6 11 20 8 40
0 4 4 7 10 7 5 0 7 5 4 10 -3 6 -1 10 5 10 7 0 9 7 6 17 -4 10 -4 14 0 10 12
-12 32 56 21 71 -6 8 -6 12 2 12 6 0 11 7 11 16 0 9 -5 12 -12 8 -9 -6 -9 -3
1 9 7 9 11 22 9 29 -3 7 -2 22 2 33 4 12 2 31 -7 48 -9 19 -10 27 -2 27 8 0 8
4 0 14 -10 11 -8 17 6 25 12 7 14 10 4 11 -12 0 -12 3 0 18 8 9 14 26 14 37 0
11 6 26 15 32 12 11 13 14 1 22 -8 5 -9 10 -2 12 5 2 11 18 13 36 2 30 5 32
36 29 18 -1 45 3 59 11 14 7 33 13 43 13 10 0 21 6 23 13 4 9 6 9 6 -1 1 -10
5 -10 23 0 40 24 88 73 88 90 0 10 5 18 11 18 5 0 7 5 4 10 -3 6 -1 10 5 10 7
0 10 7 6 15 -3 8 0 14 7 12 8 -1 12 13 13 43 1 54 -4 72 -19 63 -6 -4 -8 0 -4
10 4 10 2 16 -6 14 -7 -1 -11 3 -10 9 1 7 -7 20 -19 30 -14 13 -19 14 -13 4 4
-8 -4 -4 -20 10 -16 14 -25 19 -21 13 5 -9 2 -11 -8 -7 -9 3 -13 11 -9 18 4 6
-1 5 -10 -3 -10 -8 -17 -9 -17 -3 0 6 -8 11 -17 11 -10 0 -37 2 -60 4 -24 2
-43 -1 -43 -7 0 -5 -3 -6 -7 -3 -3 4 -13 1 -21 -6 -13 -10 -14 -9 -7 3 7 13 6
13 -7 2 -9 -7 -33 -15 -55 -17 -68 -7 -78 -10 -86 -22 -9 -14 -50 4 -73 33 -9
11 -12 12 -8 4 6 -12 4 -12 -12 1 -10 9 -27 19 -37 22 -10 4 -16 11 -13 16 3
5 -1 11 -9 15 -8 3 -15 12 -15 20 0 7 -7 17 -16 20 -8 3 -12 2 -9 -4 3 -6 -1
-7 -9 -4 -9 3 -14 10 -11 15 3 4 -3 6 -14 4 -18 -3 -68 42 -63 57 1 5 -4 7
-11 5 -6 -1 -11 4 -9 11 2 10 -2 10 -16 3 -17 -9 -19 -6 -20 26 -1 19 -7 42
-14 51 -7 9 -8 13 -2 9 7 -4 10 2 6 18 -2 14 -8 23 -12 20 -4 -2 -6 9 -4 26 3
20 0 28 -7 23 -7 -4 -9 1 -4 15 4 13 2 21 -5 21 -6 0 -8 5 -5 10 3 6 1 10 -6
10 -8 0 -7 5 2 17 10 11 10 14 2 9 -8 -4 -13 -1 -13 9 0 9 -4 14 -8 11 -4 -2
-9 5 -9 17 -1 12 -7 23 -13 25 -5 2 -10 13 -10 23 0 11 -4 17 -10 14 -5 -3
-10 2 -10 12 0 10 -9 25 -19 33 -11 7 -18 17 -15 22 3 4 -2 8 -10 8 -9 0 -16
7 -16 15 0 9 -7 18 -15 21 -8 4 -12 10 -9 15 3 5 1 9 -5 9 -6 0 -21 10 -34 23
-33 31 -67 58 -67 52 0 -2 -12 7 -26 20 -14 13 -34 22 -44 20 -13 -3 -17 1
-13 11 3 9 -2 15 -13 16 -11 0 -24 2 -31 2 -6 1 -15 5 -20 10 -5 5 -2 6 6 1 9
-5 12 -4 7 3 -4 6 -13 9 -21 5 -8 -3 -15 0 -15 6 0 6 -8 11 -18 11 -10 0 -28
7 -40 16 -12 8 -22 11 -22 5 0 -6 -7 -8 -15 -5 -8 4 -13 9 -10 13 2 4 -2 8
-10 8 -8 0 -11 -5 -8 -11 4 -6 -1 -5 -10 3 -9 7 -23 11 -31 8 -8 -3 -20 1 -27
9 -8 10 -15 12 -22 5 -7 -7 -16 -6 -29 6 -17 15 -18 15 -18 -3 -1 -17 -1 -18
-11 -2 -6 11 -16 15 -26 11 -12 -5 -14 -3 -8 8 4 8 5 11 0 7 -4 -4 -15 -2 -24
5 -14 11 -14 10 -2 -5z m-804 -907 c3 -5 2 -12 -3 -15 -5 -3 -9 1 -9 9 0 17 3
19 12 6z m1620 -121 c-5 -9 15 -15 38 -11 4 0 7 -4 7 -10 0 -8 6 -7 17 2 11
10 14 10 9 2 -5 -9 0 -13 18 -13 14 0 28 -5 31 -10 4 -7 13 -7 26 0 14 8 19 7
19 -1 0 -6 6 -9 14 -6 7 3 19 0 25 -6 8 -8 11 -8 11 0 0 6 9 9 20 6 11 -3 20
-10 20 -15 0 -6 8 -4 17 3 13 11 15 11 9 1 -5 -9 -3 -12 5 -11 8 2 25 -3 39
-10 31 -17 65 -51 50 -51 -7 0 -8 -6 -1 -18 8 -14 6 -18 -10 -19 -10 -1 -24 6
-31 15 -17 23 -50 40 -65 35 -10 -4 -9 -8 2 -20 8 -8 12 -19 9 -25 -4 -7 -2
-8 4 -4 7 4 12 2 12 -4 0 -6 4 -9 9 -5 9 5 27 -32 23 -47 -1 -5 2 -7 7 -5 5 1
8 -2 8 -8 -1 -5 18 -12 42 -15 51 -6 61 -26 30 -59 -12 -13 -15 -21 -7 -21 9
0 9 -3 0 -12 -7 -7 -12 -20 -12 -30 0 -13 -7 -17 -24 -16 -14 1 -22 7 -19 15
3 8 -2 11 -17 8 -18 -3 -20 -2 -10 10 17 20 6 19 -14 -1 -9 -8 -16 -11 -16 -5
0 6 -5 11 -11 11 -5 0 -7 -5 -3 -11 5 -8 1 -8 -13 0 -11 6 -24 7 -28 3 -5 -4
-5 -1 -1 6 4 6 0 19 -8 28 -9 8 -16 22 -16 30 0 8 -4 14 -10 14 -5 0 -7 6 -4
13 2 7 -4 24 -15 36 -11 13 -23 32 -26 42 -4 11 -13 19 -21 19 -8 0 -13 6 -11
13 1 6 -4 11 -11 9 -8 -1 -11 2 -8 7 3 5 -2 15 -11 22 -9 8 -14 9 -10 3 4 -7
-4 -11 -23 -10 -17 1 -30 4 -30 8 0 8 -27 4 -36 -5 -12 -11 -26 -8 -18 4 5 8
1 8 -14 0 -30 -16 -33 -14 -30 18 1 16 6 27 10 25 4 -3 8 -2 9 3 0 4 2 18 3
31 2 12 11 29 22 37 23 17 27 18 19 5z m-1230 -1168 c-3 -3 -11 0 -18 7 -9 10
-8 11 6 5 10 -3 15 -9 12 -12z"/>
<path d="M20 760 c0 -5 5 -10 11 -10 5 0 7 5 4 10 -3 6 -8 10 -11 10 -2 0 -4
-4 -4 -10z"/>
</g>
</svg>
